<svg width="1141" height="1139" viewBox="0 0 1141 1139" fill="none" xmlns="http://www.w3.org/2000/svg">
<g clip-path="url(#clip0_1543_277)">
<path d="M1099.61 790.723C1099.61 790.723 1103.86 800.035 1105.15 708.242C1105.53 682.061 1106.67 643.341 1107.17 615.246C1109.04 506.082 1102.55 390.841 1106.28 343.67C1114.36 241.804 1108.66 28.2199 1108.66 28.2199L48.2486 27.8426C48.2486 27.8426 41.8588 233.041 34.6487 374.941C27.4386 516.842 36.4535 763.397 36.4535 763.397L1099.61 790.723ZM1037.88 65.6178C1048.69 67.1793 1056.18 77.2009 1054.61 88.0033C1053.05 98.8057 1043.03 106.27 1032.23 104.708C1021.43 103.147 1013.94 93.1511 1015.5 82.3488C1017.06 71.5464 1027.08 64.0562 1037.88 65.6178ZM936.651 65.7675C947.454 67.3291 954.918 77.347 953.356 88.1493C951.795 98.9517 941.803 106.42 931.001 104.858C920.198 103.297 912.704 93.3009 914.266 82.4985C915.827 71.6962 925.849 64.206 936.651 65.7675ZM835.42 65.9174C846.222 67.4789 853.712 77.5005 852.151 88.3029C850.589 99.1053 840.571 106.57 829.769 105.008C818.966 103.446 811.473 93.4507 813.034 82.6484C814.596 71.846 824.617 64.3558 835.42 65.9174ZM734.192 66.0413C744.994 67.6028 752.458 77.6207 750.897 88.4231C749.335 99.2254 739.343 106.693 728.541 105.132C717.739 103.57 710.245 93.5747 711.806 82.7723C713.368 71.9699 723.389 64.4797 734.192 66.0413ZM632.96 66.1911C643.763 67.7526 651.253 77.7742 649.691 88.5766C648.13 99.379 638.112 106.843 627.31 105.282C616.507 103.72 609.013 93.7245 610.575 82.9221C612.136 72.1197 622.158 64.6295 632.96 66.1911ZM531.758 66.3187C542.561 67.8803 550.025 77.8982 548.463 88.7006C546.902 99.5029 536.91 106.971 526.107 105.409C515.305 103.848 507.811 93.8522 509.373 83.0498C510.934 72.2474 520.956 64.7572 531.758 66.3187ZM430.501 66.4648C441.303 68.0264 448.793 78.048 447.232 88.8504C445.67 99.6528 435.649 107.143 424.846 105.581C414.044 104.02 406.554 93.9982 408.115 83.1958C409.677 72.3935 419.698 64.9032 430.501 66.4648ZM329.295 66.6184C340.097 68.1799 347.565 78.1719 346.004 88.9743C344.442 99.7766 334.447 107.271 323.644 105.709C312.842 104.147 305.352 94.1258 306.913 83.3235C308.475 72.5211 318.493 65.0568 329.295 66.6184ZM228.063 66.7682C238.866 68.3297 246.36 78.3254 244.798 89.1278C243.236 99.9302 233.215 107.42 222.413 105.859C211.61 104.297 204.12 94.2756 205.681 83.4733C207.243 72.6709 217.261 65.2066 228.063 66.7682ZM104.48 83.6009C106.041 72.7985 116.059 65.3343 126.861 66.8958C137.664 68.4574 145.132 78.4493 143.57 89.2517C142.009 100.054 132.013 107.548 121.211 105.986C110.408 104.425 102.918 94.4033 104.48 83.6009Z" fill="#FFF5D7"/>
<g filter="url(#filter0_d_1543_277)">
<path d="M1100.11 1112.56C1100.11 1112.56 1104.36 1121.88 1105.65 1030.08C1106.03 1003.9 1107.18 770.287 1107.67 742.193C1109.54 633.028 1103.05 390.841 1106.78 343.67C1114.87 241.805 1109.17 28.2201 1109.17 28.2201L48.7495 27.8429C48.7495 27.8429 42.3596 233.042 35.1496 374.942C27.9395 516.842 36.9542 1112.56 36.9542 1112.56L1100.11 1112.56ZM1038.38 65.618C1049.19 67.1795 1056.68 77.2012 1055.11 88.0035C1053.55 98.8059 1043.54 106.27 1032.73 104.709C1021.93 103.147 1014.44 93.1514 1016 82.349C1017.56 71.5466 1027.58 64.0564 1038.38 65.618ZM937.152 65.7678C947.954 67.3293 955.419 77.3472 953.857 88.1496C952.296 98.952 942.304 106.42 931.501 104.858C920.699 103.297 913.205 93.3011 914.766 82.4988C916.328 71.6964 926.35 64.2062 937.152 65.7678ZM835.92 65.9176C846.723 67.4791 854.213 77.5007 852.651 88.3031C851.09 99.1055 841.072 106.57 830.269 105.008C819.467 103.447 811.973 93.451 813.535 82.6486C815.096 71.8462 825.118 64.356 835.92 65.9176ZM734.692 66.0415C745.495 67.603 752.959 77.6209 751.397 88.4233C749.836 99.2257 739.844 106.694 729.042 105.132C718.239 103.571 710.745 93.5749 712.307 82.7725C713.869 71.9701 723.89 64.4799 734.692 66.0415ZM633.461 66.1914C644.264 67.7529 651.753 77.7745 650.192 88.5769C648.63 99.3792 638.613 106.844 627.81 105.282C617.008 103.72 609.514 93.7247 611.076 82.9224C612.637 72.12 622.659 64.6298 633.461 66.1914ZM532.259 66.319C543.062 67.8806 550.526 77.8984 548.964 88.7008C547.403 99.5032 537.411 106.971 526.608 105.41C515.806 103.848 508.312 93.8524 509.874 83.05C511.435 72.2477 521.457 64.7575 532.259 66.319ZM431.002 66.4651C441.804 68.0266 449.294 78.0483 447.733 88.8507C446.171 99.653 436.149 107.143 425.347 105.582C414.545 104.02 407.055 93.9985 408.616 83.1961C410.178 72.3937 420.199 64.9035 431.002 66.4651ZM329.796 66.6186C340.598 68.1802 348.066 78.1721 346.505 88.9745C344.943 99.7769 334.947 107.271 324.145 105.709C313.343 104.148 305.853 94.1261 307.414 83.3237C308.976 72.5214 318.994 65.0571 329.796 66.6186ZM228.564 66.7684C239.367 68.33 246.86 78.3257 245.299 89.1281C243.737 99.9305 233.716 107.421 222.913 105.859C212.111 104.298 204.621 94.2759 206.182 83.4735C207.744 72.6712 217.762 65.2069 228.564 66.7684ZM104.98 83.6012C106.542 72.7988 116.56 65.3346 127.362 66.8961C138.165 68.4577 145.633 78.4496 144.071 89.252C142.51 100.054 132.514 107.548 121.711 105.987C110.909 104.425 103.419 94.4036 104.98 83.6012Z" fill="#FFF5D7"/>
</g>
<path d="M3.6629 158.822L85.5215 157.282L82.5602 -0.158004L0.701569 1.3817L3.6629 158.822Z" fill="#8AB59B"/>
</g>
<defs>
<filter id="filter0_d_1543_277" x="14.8545" y="12.9429" width="1118.96" height="1125.18" filterUnits="userSpaceOnUse" color-interpolation-filters="sRGB">
<feFlood flood-opacity="0" result="BackgroundImageFix"/>
<feColorMatrix in="SourceAlpha" type="matrix" values="0 0 0 0 0 0 0 0 0 0 0 0 0 0 0 0 0 0 127 0" result="hardAlpha"/>
<feOffset dx="2.6" dy="5.2"/>
<feGaussianBlur stdDeviation="10.05"/>
<feComposite in2="hardAlpha" operator="out"/>
<feColorMatrix type="matrix" values="0 0 0 0 0.458824 0 0 0 0 0.278431 0 0 0 0 0.243137 0 0 0 0.4 0"/>
<feBlend mode="normal" in2="BackgroundImageFix" result="effect1_dropShadow_1543_277"/>
<feBlend mode="normal" in="SourceGraphic" in2="effect1_dropShadow_1543_277" result="shape"/>
</filter>
<clipPath id="clip0_1543_277">
<rect width="1141" height="1139" fill="white"/>
</clipPath>
</defs>
</svg>
