<svg width="28" height="29" viewBox="0 0 28 29" fill="none" xmlns="http://www.w3.org/2000/svg">
<g clip-path="url(#clip0_715_6269)">
<path d="M25.9273 0H2.06719C0.924219 0 0 0.93457 0 2.09004V26.9043C0 28.0598 0.924219 29 2.06719 29H25.9273C27.0703 29 28 28.0598 28 26.91V2.09004C28 0.93457 27.0703 0 25.9273 0ZM8.30703 24.7123H4.15078V10.8693H8.30703V24.7123ZM6.22891 8.9832C4.89453 8.9832 3.81719 7.86738 3.81719 6.49102C3.81719 5.11465 4.89453 3.99883 6.22891 3.99883C7.55781 3.99883 8.63516 5.11465 8.63516 6.49102C8.63516 7.86172 7.55781 8.9832 6.22891 8.9832ZM23.8602 24.7123H19.7094V17.9834C19.7094 16.3805 19.682 14.3131 17.5492 14.3131C15.3891 14.3131 15.0609 16.0633 15.0609 17.8701V24.7123H10.9156V10.8693H14.8969V12.7611H14.9516C15.5039 11.6736 16.8602 10.5238 18.8781 10.5238C23.0836 10.5238 23.8602 13.3898 23.8602 17.1168V24.7123Z" fill="white"/>
</g>
<defs>
<clipPath id="clip0_715_6269">
<rect width="28" height="29" fill="white"/>
</clipPath>
</defs>
</svg>
