<svg width="1395" height="1055" viewBox="0 0 1395 1055" fill="none" xmlns="http://www.w3.org/2000/svg">
<path d="M1280.96 921.073C1280.96 921.073 1285.14 930.227 1286.4 840.002C1286.77 814.269 1287.9 776.211 1288.38 748.597C1290.22 641.299 1283.85 528.029 1287.51 481.664C1295.46 381.54 1289.86 171.608 1289.86 171.608L108.877 171.237C108.877 171.237 102.596 372.927 95.5092 512.401C88.4224 651.875 97.2832 894.214 97.2832 894.214L1280.96 921.073ZM1119.49 208.366C1130.1 209.901 1137.47 219.751 1135.93 230.369C1134.4 240.987 1124.55 248.323 1113.93 246.788C1103.31 245.254 1095.95 235.429 1097.48 224.811C1099.02 214.193 1108.87 206.831 1119.49 208.366ZM1019.99 208.513C1030.6 210.048 1037.94 219.895 1036.41 230.512C1034.87 241.13 1025.05 248.47 1014.43 246.936C1003.81 245.401 996.448 235.576 997.983 224.958C999.518 214.341 1009.37 206.979 1019.99 208.513ZM920.485 208.661C931.103 210.195 938.465 220.046 936.93 230.663C935.395 241.281 925.549 248.618 914.931 247.083C904.313 245.548 896.948 235.723 898.482 225.106C900.017 214.488 909.868 207.126 920.485 208.661ZM820.988 208.782C831.606 210.317 838.943 220.164 837.408 230.782C835.873 241.399 826.052 248.74 815.434 247.205C804.816 245.67 797.451 235.845 798.986 225.227C800.52 214.61 810.371 207.248 820.988 208.782ZM721.488 208.93C732.105 210.465 739.467 220.315 737.933 230.932C736.398 241.55 726.551 248.887 715.933 247.352C705.316 245.817 697.95 235.992 699.485 225.375C701.02 214.757 710.87 207.395 721.488 208.93ZM622.016 209.055C632.634 210.59 639.97 220.437 638.435 231.054C636.901 241.672 627.079 249.012 616.462 247.477C605.844 245.943 598.478 236.118 600.013 225.5C601.548 214.882 611.398 207.52 622.016 209.055ZM522.49 209.199C533.107 210.734 540.47 220.584 538.935 231.202C537.4 241.819 527.55 249.181 516.932 247.646C506.314 246.112 498.952 236.261 500.487 225.644C502.022 215.026 511.872 207.664 522.49 209.199ZM423.014 209.35C433.632 210.885 440.972 220.706 439.438 231.323C437.903 241.941 428.078 249.307 417.46 247.772C406.843 246.237 399.48 236.387 401.015 225.769C402.55 215.151 412.397 207.815 423.014 209.35ZM323.514 209.497C334.131 211.032 341.497 220.857 339.962 231.474C338.428 242.092 328.577 249.454 317.96 247.919C307.342 246.384 299.98 236.534 301.515 225.916C303.049 215.299 312.896 207.962 323.514 209.497ZM202.043 226.042C203.578 215.424 213.424 208.088 224.042 209.622C234.66 211.157 242 220.978 240.465 231.596C238.93 242.214 229.106 249.58 218.488 248.045C207.87 246.51 200.508 236.66 202.043 226.042Z" fill="#FFF8E3"/>
</svg>
