<svg width="1226" height="748" viewBox="0 0 1226 748" fill="none" xmlns="http://www.w3.org/2000/svg">
<g clip-path="url(#clip0_1215_83)">
<path d="M1219.55 744.082C1219.55 744.082 1223.78 752.853 1224.47 666.677C1224.67 642.098 1225.55 605.751 1225.85 579.377C1226.99 476.895 1219.89 368.655 1223.25 324.39C1230.54 228.801 1223.59 28.2311 1223.59 28.2311L43.7115 20.2333C43.7115 20.2333 38.7421 212.853 32.5647 346.036C26.3873 479.219 36.8082 710.765 36.8082 710.765L628.179 727.424L1219.55 744.082ZM1053.62 62.2411C1064.23 63.7759 1071.65 73.2328 1070.19 83.3651C1068.72 93.4975 1058.93 100.442 1048.32 98.907C1037.7 97.3722 1030.28 87.9396 1031.74 77.8072C1033.21 67.6749 1043 60.7062 1053.62 62.2411ZM954.21 61.7377C964.827 63.2725 972.221 72.7257 970.756 82.858C969.291 92.9904 959.527 99.9385 948.909 98.4036C938.292 96.8688 930.869 87.4362 932.334 77.3039C933.799 67.1715 943.592 60.2028 954.21 61.7377ZM854.803 61.2343C865.421 62.7692 872.84 72.2261 871.375 82.3584C869.91 92.4908 860.12 99.4351 849.503 97.9003C838.885 96.3654 831.462 86.9329 832.927 76.8005C834.392 66.6682 844.185 59.6995 854.803 61.2343ZM755.4 60.7067C766.018 62.2416 773.411 71.6947 771.946 81.8271C770.482 91.9594 760.717 98.9076 750.1 97.3727C739.482 95.8379 732.06 86.4053 733.524 76.2729C734.989 66.1406 744.782 59.1718 755.4 60.7067ZM655.993 60.2034C666.611 61.7382 674.03 71.1951 672.565 81.3274C671.101 91.4598 661.311 98.4043 650.693 96.8694C640.075 95.3346 632.653 85.9019 634.118 75.7696C635.582 65.6372 645.376 58.6685 655.993 60.2034ZM556.615 59.6794C567.233 61.2143 574.627 70.6675 573.162 80.7998C571.697 90.9322 561.933 97.8803 551.315 96.3454C540.697 94.8106 533.275 85.378 534.74 75.2457C536.205 65.1133 545.998 58.1446 556.615 59.6794ZM457.183 59.1724C467.801 60.7073 475.22 70.1642 473.755 80.2965C472.291 90.4289 462.497 97.3975 451.88 95.8627C441.262 94.3278 433.843 84.871 435.308 74.7386C436.772 64.6063 446.566 57.6376 457.183 59.1724ZM357.802 58.6728C368.42 60.2076 375.817 69.6365 374.352 79.7689C372.887 89.9012 363.119 96.8736 352.502 95.3387C341.884 93.8039 334.465 84.347 335.93 74.2147C337.395 64.0823 347.184 57.1379 357.802 58.6728ZM258.395 58.1694C269.013 59.7043 276.436 69.1369 274.971 79.2692C273.506 89.4016 263.713 96.3703 253.095 94.8354C242.477 93.3005 235.058 83.8437 236.523 73.7113C237.988 63.579 247.778 56.6346 258.395 58.1694ZM137.146 73.1874C138.61 63.055 148.4 56.1106 159.018 57.6454C169.635 59.1803 177.032 68.6092 175.568 78.7415C174.103 88.8739 164.335 95.8463 153.717 94.3114C143.1 92.7766 135.681 83.3197 137.146 73.1874Z" fill="#FFF8E3"/>
<path d="M3.1529 156.6L83.6118 155.086L80.7011 0.3383L0.242197 1.85167L3.1529 156.6Z" fill="#8AB59B"/>
</g>
<defs>
<clipPath id="clip0_1215_83">
<rect width="1226" height="748" fill="white"/>
</clipPath>
</defs>
</svg>
