<svg width="369" height="781" viewBox="0 0 369 781" fill="none" xmlns="http://www.w3.org/2000/svg">
<path d="M367.223 780.02C367.223 780.02 366.822 647.87 367.223 617.217C367.339 608.475 367.66 548.908 367.816 539.527C368.407 503.074 366.09 395.504 367.333 379.753C370.03 345.74 367.719 9.85956 367.719 9.85956L10.0668 9.33069C10.0668 9.33069 8.28394 342.406 5.89873 389.789C3.51353 437.171 5.89867 780.02 5.89867 780.02L367.223 780.02ZM343.238 22.3204C346.894 22.846 349.432 26.1954 348.908 29.802C348.383 33.4087 344.997 35.8974 341.342 35.3719C337.686 34.8463 335.147 31.5056 335.671 27.8989C336.196 24.2922 339.583 21.7948 343.238 22.3204ZM308.99 22.3318C312.645 22.8574 315.174 26.2055 314.65 29.8122C314.126 33.4189 310.748 35.9089 307.093 35.3833C303.438 34.8577 300.898 31.517 301.423 27.9103C301.947 24.3036 305.334 21.8062 308.99 22.3318ZM274.741 22.3432C278.396 22.8688 280.934 26.2182 280.41 29.8249C279.886 33.4315 276.499 35.9203 272.844 35.3947C269.189 34.8691 266.65 31.5284 267.174 27.9217C267.698 24.3151 271.086 21.8177 274.741 22.3432ZM240.493 22.346C244.149 22.8716 246.678 26.2197 246.154 29.8264C245.63 33.4331 242.252 35.9231 238.597 35.3975C234.941 34.8719 232.402 31.5312 232.926 27.9245C233.451 24.3178 236.838 21.8204 240.493 22.346ZM206.245 22.3575C209.9 22.883 212.438 26.2324 211.914 29.8391C211.39 33.4458 208.003 35.9345 204.348 35.409C200.693 34.8834 198.154 31.5426 198.678 27.936C199.202 24.3293 202.59 21.8319 206.245 22.3575ZM172.006 22.3615C175.662 22.8871 178.191 26.2352 177.666 29.8419C177.142 33.4486 173.765 35.9386 170.109 35.413C166.454 34.8874 163.915 31.5467 164.439 27.94C164.963 24.3334 168.351 21.836 172.006 22.3615ZM137.749 22.3717C141.404 22.8973 143.942 26.2467 143.418 29.8534C142.894 33.46 139.506 35.9574 135.851 35.4318C132.195 34.9063 129.657 31.5569 130.182 27.9502C130.706 24.3435 134.093 21.8461 137.749 22.3717ZM103.509 22.3844C107.164 22.91 109.694 26.2495 109.17 29.8561C108.646 33.4628 105.267 35.9614 101.612 35.4359C97.9566 34.9103 95.4187 31.5609 95.9429 27.9542C96.4671 24.3476 99.8535 21.8588 103.509 22.3844ZM69.26 22.3958C72.9153 22.9214 75.4545 26.2621 74.9303 29.8688C74.4061 33.4755 71.0184 35.9729 67.3631 35.4473C63.7078 34.9217 61.1699 31.5723 61.6941 27.9657C62.2183 24.359 65.6047 21.8702 69.26 22.3958ZM27.4554 27.9697C27.9796 24.363 31.366 21.8743 35.0212 22.3998C38.6765 22.9254 41.2069 26.2649 40.6827 29.8716C40.1586 33.4783 36.7796 35.9769 33.1243 35.4513C29.4691 34.9258 26.9312 31.5764 27.4554 27.9697Z" fill="#FFF8E3"/>
<path d="M1.16351 53.0591L28.8574 52.5762L27.7955 0.000636672L0.101589 0.483578L1.16351 53.0591Z" fill="#8AB59B"/>
</svg>
