<svg width="151" height="31" viewBox="0 0 151 31" fill="none" xmlns="http://www.w3.org/2000/svg">
<g clip-path="url(#clip0_715_2162)">
<path d="M135.779 25.8209C130.19 25.8209 125.665 21.2277 125.665 15.5372V15.5093C125.665 9.82813 130.19 5.22555 135.779 5.22555C141.368 5.22555 145.901 9.83743 145.901 15.5186H150.991C150.991 6.9736 144.176 0.0464907 135.769 0.0464907C130.491 0.0464907 125.845 2.77085 123.121 6.91782C120.397 2.77085 115.75 0.0464907 110.463 0.0464907C105.75 0.0464907 101.547 2.22226 98.7568 5.63467C97.9273 3.9982 96.5041 2.31524 94.1573 1.22735C92.6116 0.483503 90.6511 0 88.1723 0C81.6784 0 75.3447 2.78014 75.3447 11.3251C75.3447 11.3437 75.3447 11.3623 75.3447 11.3809H80.4343C80.4343 6.52729 84.7887 5.23485 88.1723 5.23485C92.9603 5.23485 94.6945 8.39622 94.7039 10.0513C94.6851 12.5618 89.9819 16.8668 86.8151 19.0984C82.3005 22.2783 75.7312 25.542 75.373 25.728H75.3541V30.9814H109.709C109.963 30.9907 110.227 31 110.482 31C115.769 31 120.425 28.2756 123.14 24.1287C125.863 28.2756 130.51 31 135.788 31C144.195 31 151.01 24.0729 151.01 15.5279H145.92C145.911 21.2091 141.377 25.8209 135.779 25.8209ZM91.7633 22.1668C93.2996 20.8929 94.5437 19.74 95.5522 18.6707C95.703 19.3587 95.835 19.8236 95.9009 20.0747C95.9198 20.1398 95.9386 20.2049 95.9575 20.2699L96.0706 20.6605C96.7115 22.548 97.7011 24.2589 98.9547 25.728H86.457C88.3797 24.6308 90.2459 23.422 91.7633 22.1668ZM110.472 25.8209C106.683 25.8209 103.384 23.7103 101.65 20.5768C101.547 20.4001 101.462 20.2142 101.386 20.0189L101.226 19.6284C101.151 19.4424 101.085 19.2472 101.038 19.0519C100.896 18.4475 100.623 17.1551 100.359 15.1932C100.529 9.66077 104.987 5.22555 110.472 5.22555C116.052 5.22555 120.557 9.78164 120.576 15.4535C120.576 15.4721 120.576 15.4907 120.576 15.5093V15.5186V15.5279C120.576 15.5465 120.576 15.5651 120.576 15.5837C120.557 21.2648 116.052 25.8209 110.472 25.8209Z" fill="white"/>
<path d="M110.981 30.9815H75.354V25.728H107.032L110.981 30.9815Z" fill="white"/>
<path d="M94.7039 10.042C94.7039 8.39622 92.998 5.17906 88.1723 5.17906C84.7887 5.17906 80.4343 6.47151 80.4343 11.3251H75.3447C75.3353 2.78014 81.6784 0 88.1723 0C97.3901 0 99.5673 6.67606 99.5673 9.16797C99.5673 13.4823 98.3515 16.7088 91.7633 22.1668C86.0705 26.8809 75.3542 30.9721 75.3542 30.9721V25.7373C75.3542 25.7373 82.1685 22.3806 86.8151 19.0984C89.9914 16.8668 94.7039 12.5432 94.7039 10.042Z" fill="white"/>
<path d="M135.779 30.9999C127.371 30.9999 120.566 24.0821 120.566 15.5371V15.4999C120.566 9.81871 116.061 5.23473 110.463 5.23473C104.874 5.23473 100.34 9.84661 100.34 15.5278H95.2505C95.2505 6.98278 102.065 0.0556641 110.472 0.0556641C118.879 0.0556641 125.665 6.91769 125.665 15.4627V15.5371C125.665 21.2182 130.189 25.8208 135.779 25.8208C141.368 25.8208 145.901 21.2089 145.901 15.5278H150.991C151 24.0728 144.186 30.9999 135.779 30.9999Z" fill="white"/>
<path d="M101.386 20.0188C101.462 20.2047 101.556 20.3907 101.65 20.5767C103.385 23.7101 106.683 25.8208 110.472 25.8208C116.061 25.8208 120.576 21.2461 120.576 15.5557V15.5185C120.576 6.97348 127.381 0.0556641 135.788 0.0556641C144.195 0.0556641 151.01 6.98278 151.01 15.5278H145.92C145.92 9.84661 141.387 5.23473 135.798 5.23473C130.208 5.23473 125.684 9.82801 125.684 15.5185V15.5929C125.684 24.1378 118.898 30.9999 110.491 30.9999C103.818 30.9999 98.1347 26.732 96.0895 20.6603L95.9764 20.2698C95.9575 20.2047 95.9387 20.1396 95.9198 20.0746C95.7031 19.2191 94.6757 15.7602 94.7323 10.0977C94.7511 8.45189 93.0263 5.23473 88.2006 5.23473C84.817 5.23473 80.4626 6.52717 80.4626 11.3808H75.373C75.373 2.83581 81.7162 0.0556641 88.2101 0.0556641C97.4279 0.0556641 99.6428 6.397 99.8218 9.22363C100.152 14.6259 100.821 17.9639 101.075 19.0518C101.123 19.247 101.188 19.4423 101.264 19.6283L101.386 20.0188Z" fill="white"/>
<path d="M0 22.1949H2.65789C2.69559 23.8872 3.72293 25.1889 5.6268 25.1889C7.32333 25.1889 8.44492 24.1754 8.44492 22.7621C8.44492 21.0884 7.05 20.6235 5.08014 19.9819C2.49766 19.1451 0.744585 17.9271 0.744585 15.3608C0.744585 12.9525 2.78984 11.0278 5.5891 11.0278C8.64284 11.0278 10.5279 13.0083 10.5467 15.9837L7.94538 15.9465C7.92653 14.4867 7.13482 13.4639 5.57968 13.4639C4.24131 13.4639 3.39305 14.2822 3.39305 15.4073C3.39305 16.7834 4.53349 17.2111 6.03208 17.7225C8.68997 18.6151 11.1688 19.4334 11.1688 22.8086C11.1688 25.7375 8.80307 27.6436 5.61738 27.6436C2.24318 27.6343 0.0188503 25.3749 0 22.1949Z" fill="white"/>
<path d="M11.9697 19.3403C11.9697 14.9144 15.4947 11.0464 20.3958 11.0464C24.4297 11.0464 27.5589 13.7243 28.4637 17.146H25.3723C24.7031 15.1469 22.7332 13.7057 20.3958 13.7057C17.031 13.7057 14.6276 16.2533 14.6276 19.3775C14.6276 22.5017 17.0122 25.0494 20.3769 25.0494C22.818 25.0494 24.9199 23.4966 25.5702 21.3208H19.3308V18.9684H28.7465C29.0198 23.571 25.3817 27.6529 20.3958 27.6529C15.4947 27.6529 11.9697 23.7848 11.9697 19.3403Z" fill="white"/>
<path d="M30.5753 11.353H33.2709V24.8074H38.681V27.3551H30.5659V11.353H30.5753Z" fill="white"/>
<path d="M39.6895 27.3648L45.9477 11.3813H48.7847L54.8828 27.3648H52.1118L51.2447 25.0124H43.4124L42.5264 27.3648H39.6895ZM50.3964 22.7344L47.3615 14.5148L44.2701 22.7344H50.3964Z" fill="white"/>
<path d="M51.8384 11.3721H54.6659L58.6433 23.4504L62.4416 11.3721H64.7602L68.6622 23.4504L72.5171 11.3721H75.3352L70.2362 27.3556H67.4841L63.6104 15.2215L59.8686 27.3556H57.0882L51.8384 11.3721Z" fill="white"/>
</g>
<defs>
<clipPath id="clip0_715_2162">
<rect width="151" height="31" fill="white"/>
</clipPath>
</defs>
</svg>
