<svg xmlns="http://www.w3.org/2000/svg" width="233" height="111">
  <g fill="#FFF">
    <path d="M221.619 88.458l-.2 1.074c-.175.85-.225 1.199-.55 1.749-.574.074-.874.1-1.099.1h-7.87c-.225 0-.35-.05-.35-.175s.1-.2.324-.2h.176c1.198 0 1.323-.125 1.323-2.073v-7.146c0-.375-.351-.575-1.049-.575H212c-.25 0-.375-.075-.375-.2 0-.175.25-.3.725-.274l2.773.075 2.298-.075c.276 0 .4.075.4.225 0 .125-.05.175-.175.2l-1.225.125c-.474.05-.55.15-.55 1.224v7.546c0 .6.201.899.625.899h.775c1.148 0 1.873-.45 2.972-2.049l.601-.874c.175-.25.499-.475.699-.475.101 0 .15.124.15.399.001.151.001.275-.074.5m-19.455 2.624c.1 0 .149.025.149.125 0 .149-.1.225-.3.25-.275.024-1.773-.15-2.174-.15-.549 0-1.424.125-1.674.125s-.424-.024-.424-.175c0-.25.248-.2.699-.225.449-.025 1-.274 1.398-1.249l3.124-7.521c.024-.074.049-.199-.275-.35l-.575-.25c-.225-.1-.425-.2-.425-.325 0-.05.05-.149.125-.149l2.899-.45c.124-.025.324-.1.449-.1s.175.199.175.55c0 .149.024.55.125.774l3.423 8.069c.25.601.7.9 1.124.9.425 0 .5.05.5.249 0 .15-.05.2-.2.2l-2.124-.05-3.173.1c-.199 0-.275-.075-.275-.199 0-.125.076-.125.375-.176l.726-.149c.524-.1.624-.324.475-.675l-.725-1.674c-.275-.624-.351-.774-.9-.774h-2.423c-.35 0-.725.05-.799.125-.076.075-.102.075-.301.55l-.6 1.474c-.324.8.625 1.149 1.174 1.149h.427zm-.176-4.748c-.05.1-.175.399-.175.625 0 .175.3.274.949.274h1.649c.324 0 .5-.075.5-.225 0-.025 0-.075-.025-.125l-1.499-3.848-1.399 3.299zm-3.782-5.197c-.45 0-.976.25-1.399 1.25l-3.772 9.27c-.05.1-.15.399-.4.399-.198 0-.249-.274-.399-.648l-4.147-9.32c-.25-.599-.698-.9-1.124-.9-.425 0-.5-.05-.5-.249 0-.15.051-.199.2-.199l2.124.049 3.398-.1c.199 0 .273.075.273.2 0 .124-.074.124-.374.175l-.925.149c-.523.075-.648.3-.475.675l2.924 6.546 2.522-6.195c.351-.825-.774-1.175-1.299-1.175h-.425c-.1 0-.15-.025-.15-.125 0-.15.1-.25.375-.25s1.774.149 2.174.149c.549 0 1.424-.125 1.674-.125s.424.026.424.176c-.001.248-.249.248-.699.248m-13.016.026h-.425c-.525 0-1.149 0-1.149 1.374v7.096c0 1.176.476 1.374 1.149 1.374h.425c.075 0 .101.051.101.176s0 .199-.076.199h-5.696c-.075 0-.075-.074-.075-.199s.025-.176.102-.176h.424c.675 0 1.148-.198 1.148-1.374v-7.096c0-1.374-.624-1.374-1.148-1.374h-.424c-.076 0-.125-.05-.125-.175 0-.15.023-.225.099-.225h5.696c.076 0 .101.074.101.225-.002.125-.052.175-.127.175m-7.394 1.274l-3.099.101-.5.149-.049.25v7.37c0 .276.073.45.224.525.125.1.375.149.75.149h.325c.274 0 .425.074.425.199 0 .175-.25.276-.725.276l-2.674-.051-2.348.051c-.226 0-.351-.076-.351-.25 0-.076 0-.226.524-.25l1.049-.051c.275-.025.4-.074.4-1.249V83.11c0-.5-.074-.574-.574-.601l-2.573-.074-.226-.375c-.024-.05-.1-.125-.05-.175l.3-.375 2.448-.024c.325 0 .575-.15.575-.301v-2.572c0-.251-.125-.275-.125-.4s.125-.325.25-.325c.175 0 .3.101.523.5l1.726 3.099 3.696-.025.301.55-.222.425zm-15.443 9.169c-2.298 0-4.146-1.074-4.146-2.323 0-.55.273-1.024.748-1.024.549 0 .875.274 1.199 1 .5 1.124 1.225 1.798 2.574 1.798.975 0 1.85-.874 1.85-1.723 0-.4.073-.95-2-1.899-2.699-1.224-3.923-1.874-3.923-3.873 0-1.35 1.074-3.073 3.748-3.073 1.175 0 2.05.225 3.099.725.1.051.1.25.125.425l.299 2.099c.025.226-.074.351-.225.351-.074 0-.375-.101-.449-.301l-.524-1.199c-.575-1.349-1.624-1.624-2.224-1.624-.625 0-1.899.351-1.899 1.499 0 .875.649 1.25 1.799 1.824l1.874.925c1.273.625 2.248 1.299 2.248 2.948-.001 2.146-1.799 3.445-4.173 3.445m-7.154-1.274c-.025.175-.025.4-.15.45-1.148.55-2.049.824-3.373.824-3.522 0-4.972-2.099-4.972-5.571v-3.498c0-.924-.25-1.374-1.149-1.374h-.425c-.075 0-.125-.05-.125-.175 0-.15.05-.2.125-.2h8.22c.351 0 .6-.024 1.074.025.275.475.301.774.45 1.474l.2 1c.025.1.1.499.1.624 0 .226-.025.325-.125.325-.324 0-.425-.175-.574-.4l-.674-1.023c-.875-1.324-1.425-1.475-2.399-1.475h-1.949c-.174 0-.25.2-.25.575v3.497h2.998c.274 0 .45.401.45.55 0 .102-.024.325-.249.325l-2.524.125-.599.15-.076.449v.624c0 2.124.625 3.448 2.549 3.448.675 0 1.823-.324 2.448-1.799l.574-1.324c.101-.225.426-.325.5-.325.176 0 .275.125.25.375l-.325 2.324zm-12.621-7.57c-1.273 0-1.074-1.225-2.499-1.225-.574 0-.925.6-.925 2.248v1.774c0 .2.051.25.226.25h.45c1.148 0 1.674 0 1.898-1.448.051-.4.15-.551.326-.551.125 0 .148.051.148.176l-.023.724v3.398c0 .225-.076.274-.201.274s-.225-.1-.225-.25c0-2.022-.975-1.774-2.174-1.774h-.301c-.125 0-.149.075-.149.5v2.425c0 1.548.5 1.673 1.675 1.673.375 0 .475.05.475.15l-.025.199c0 .075-.199.075-.4.075h-5.246c-.324 0-.5-.099-.5-.3 0-.125.051-.174.176-.174.874 0 1.374-.026 1.374-.926v-4.147c0-2.972 2.274-5.221 4.997-5.221 1.199 0 1.898.599 1.898 1.273-.001.576-.325.877-.975.877M114.559 16.38c-.025.178-.025.406-.152.457-1.167.558-2.08.837-3.425.837-3.576 0-5.048-2.131-5.048-5.657V8.466c0-.939-.253-1.395-1.167-1.395h-.431c-.076 0-.126-.051-.126-.178 0-.152.05-.202.126-.202h8.346c.355 0 .608-.026 1.09.024.28.482.305.787.457 1.498l.204 1.014c.024.101.101.508.101.634 0 .228-.025.33-.127.33-.33 0-.431-.178-.583-.406l-.685-1.04c-.889-1.344-1.446-1.497-2.435-1.497h-1.979c-.178 0-.254.203-.254.584v3.551h3.044c.279 0 .457.406.457.558 0 .102-.025.33-.254.33l-2.562.127-.609.152-.076.456v.635c0 2.156.634 3.5 2.588 3.5.685 0 1.851-.329 2.485-1.826l.584-1.345c.101-.228.431-.329.507-.329.178 0 .279.127.254.38l-.33 2.359zm-11.373 1.092l-2.233-.076-1.877.05c-.33 0-.507-.076-.507-.203 0-.152.076-.228.229-.228h.101c.127 0 .736-.228.736-.939v-1.243c0-2.206-.584-2.663-2.512-2.663h-.482c-.203 0-.304.127-.304.38v3.932c0 .076-.127.558.685.558.177 0 .279.076.279.203 0 .178-.204.279-.609.279l-2.131-.05-2.181.05c-.28 0-.406-.101-.406-.279 0-.152.279-.177.811-.228l.66-.076c.178-.025.355-.051.355-1.268V7.755c0-.38-.38-.583-1.116-.583h-.304c-.28 0-.406-.077-.406-.203 0-.178.228-.279.659-.279h5.631c2.36 0 3.552.812 3.552 2.409 0 .888-.609 2.005-3.526 2.74.558 0 3.881 0 3.881 3.45v.964c0 .457.127.685.381.736l.634.101c.152.025.228.102.228.228 0 .102-.077.154-.228.154m-6.215-10.3c-.431 0-.634.203-.634.608v3.933h1.167c.507 0 1.522-.508 1.522-2.258 0-.888-.33-2.283-2.055-2.283M84.745 17.674c-3.856 0-5.886-2.79-5.886-5.657 0-2.866 2.03-5.53 5.886-5.53 3.855 0 5.885 2.664 5.885 5.53 0 2.867-2.03 5.657-5.885 5.657M84.77 7.02c-1.725 0-2.892 1.801-2.892 5.022 0 3.298 1.167 5.099 2.892 5.099s2.892-1.801 2.892-5.099c0-3.221-1.167-5.022-2.892-5.022M70.114 17.623c-.812 0-1.878-.279-2.055-.279-.102 0-.152.102-.152.304v2.969c0 .279.025.557 1.04.557h.33c.278 0 .431.077.431.203 0 .228-.254.355-.736.33l-2.866-.076-2.385.076c-.228 0-.355-.102-.355-.279 0-.076.254-.127.786-.203l.812-.101c.279-.025.406-.077.406-1.269V7.73c0-.38-.38-.583-1.142-.583h-.304c-.279 0-.406-.076-.406-.203 0-.178.203-.254.634-.254h5.15c4.591 0 6.696 2.562 6.696 5.276 0 2.816-1.952 5.657-5.884 5.657M69.2 7.147h-1.09c-.153 0-.203.203-.203.431v7.458c0 1.395.608 2.105 2.232 2.105 1.725 0 2.892-1.801 2.892-5.098 0-3.222-.989-4.896-3.831-4.896"/>
    <path d="M54.99 17.141c.101 0 .152.026.152.127 0 .152-.102.228-.305.254-.279.025-1.801-.152-2.207-.152-.558 0-1.445.126-1.699.126s-.431-.025-.431-.177c0-.254.253-.203.71-.228.456-.026 1.015-.279 1.42-1.269l3.171-7.635c.026-.076.051-.203-.279-.355l-.583-.254c-.229-.101-.431-.203-.431-.33 0-.051.05-.152.126-.152l2.943-.457c.127-.025.33-.101.457-.101s.177.203.177.558c0 .152.026.559.127.787l3.475 8.193c.254.609.71.913 1.142.913.431 0 .507.051.507.254 0 .152-.05.203-.203.203l-2.156-.051-3.222.101c-.202 0-.279-.076-.279-.202 0-.127.077-.127.381-.178l.736-.152c.532-.101.634-.33.482-.685l-.736-1.7c-.279-.633-.355-.786-.913-.786h-2.461c-.355 0-.736.051-.812.127-.076.076-.101.076-.304.558l-.609 1.496c-.33.812.634 1.167 1.192 1.167h.432zm-.177-4.819c-.051.102-.178.405-.178.634 0 .178.305.279.964.279h1.674c.33 0 .508-.076.508-.228 0-.026 0-.077-.026-.127l-1.522-3.907-1.42 3.349zm-5.998 2.612l.076 2.74c.076 3.018-1.877 5.302-4.642 5.302-1.218 0-1.928-.609-1.928-1.294 0-.583.33-.888.99-.888 1.293 0 1.09 1.243 2.536 1.243.583 0 .939-.609.939-2.283v-1.801c0-.558-.254-.837-.609-.837-.102 0-.862.609-2.918.609-2.308 0-5.174-1.928-5.174-5.505 0-2.232 1.801-5.682 5.936-5.682 1.877 0 2.739.583 3.501.583.126 0 .126-.05.253-.05.152 0 .228.203.279.405l.355 2.105.254 1.142c.025.077-.127.127-.228.127-.077 0-.153 0-.178-.05l-.558-1.447c-.558-1.471-2.004-2.232-3.12-2.232-2.359 0-3.475 2.841-3.475 5.302 0 2.917 1.243 4.566 3.044 4.566.913 0 1.775-.33 2.282-.609v-1.978c0-.28-.253-.406-.761-.406h-.685c-.329 0-.405-.077-.405-.254 0-.178.278-.203.786-.254l1.395-.152 1.75-.381c.28-.076.407.102.407.28l-.102 1.699zm-12.068-7.94c0 .026-.076.051-.152.051l-.863.127c-.532.102-.684.152-.684.939v8.852c0 .66-.026.812-.026.939 0 .228-.228.355-.38.177l-7.356-9.131-.102.532v6.697c0 .634.558.786 1.471.862.304.026.381.077.381.254 0 .127-.026.153-.127.153h-3.856c-.279 0-.406-.026-.381-.102l.052-.203c0-.025.075-.051.151-.051l.863-.127c.533-.101.685-.152.685-.938V9.988c0-2.334-.508-2.917-1.344-2.917h-.432c-.076 0-.101-.051-.101-.178 0-.102.025-.203.126-.203h3.958l5.657 7.027V7.958c0-.634-.559-.786-1.472-.862-.304-.025-.38-.076-.38-.254 0-.127.025-.152.127-.152h3.855c.279 0 .406.025.381.101l-.051.203zm-14.552.077h-.432c-.532 0-1.166 0-1.166 1.395v7.204c0 1.192.482 1.395 1.166 1.395h.432c.076 0 .101.051.101.178s0 .203-.076.203h-5.784c-.075 0-.075-.076-.075-.203s.025-.178.101-.178h.431c.685 0 1.167-.203 1.167-1.395V8.466c0-1.395-.634-1.395-1.167-1.395h-.431c-.076 0-.127-.051-.127-.178 0-.152.026-.228.101-.228h5.784c.076 0 .102.076.102.228 0 .127-.051.178-.127.178M9.815 17.674c-2.333 0-4.21-1.091-4.21-2.359 0-.558.278-1.04.76-1.04.558 0 .888.279 1.218 1.015.507 1.141 1.243 1.826 2.613 1.826.989 0 1.877-.888 1.877-1.75 0-.406.076-.964-2.029-1.928-2.74-1.243-3.983-1.903-3.983-3.932 0-1.37 1.091-3.12 3.805-3.12 1.192 0 2.08.228 3.146.735.101.052.101.254.126.432l.304 2.13c.026.229-.075.356-.228.356-.076 0-.38-.102-.456-.304l-.533-1.219c-.583-1.369-1.649-1.648-2.257-1.648-.635 0-1.928.355-1.928 1.522 0 .888.659 1.268 1.826 1.851l1.903.939c1.293.634 2.283 1.319 2.283 2.994 0 2.181-1.827 3.5-4.237 3.5m219.12 17.345c0-.294-.099-.491-.198-.688l-.889-1.471-11.877.099-5.347-9.612c-.693-1.276-1.089-1.668-1.682-1.668a.673.673 0 00-.693.686c0 .393.396.49.396 1.275v8.436c-.199.394-.792.98-1.881.98l-10.887.098-1.188 1.472c0 .295.1.491.197.687l.891 1.472 10.986.295c1.979.098 2.275.393 2.375 2.157v25.896c0 4.316-.396 4.709-2.178 4.904l-4.748.394c-.397.195-.596.392-.596.782 0 .591.395.982 1.188.982l7.324-.392 9.106.392c1.582 0 2.373-.785 2.373-1.177 0-.393-.592-.786-1.583-.786h-1.188c-2.771 0-3.76-.391-3.76-2.647V38.55l.197-.981 1.979-.589 11.283-.489.4-1.472zm-39.391 36.097c0-.49-.197-.686-.396-.686h-1.781c-2.968 0-4.157-1.373-4.157-5.396V36.587l.197-3.823c0-.688 0-1.275-.691-1.275-.297 0-.793.293-1.287.783l-2.572 2.552c-1.584-.098-5.048-2.747-10.689-2.747-4.158 0-7.918 1.177-11.779 4.218V13.637c0-4.317.396-4.61 2.178-4.808l4.652-.49c.494-.098.693-.392.693-.784 0-.49-.496-.883-1.287-.883l-7.325.294-9.006-.294c-1.584-.098-2.375.686-2.375 1.08 0 .489.494.783 1.483.783h1.187c2.773 0 3.959.492 3.959 2.256v54.244c0 4.022-1.186 5.396-4.155 5.396h-1.782c-.197 0-.395.195-.395.686 0 .589.197.785.395.785h16.133c.594 0 .693-.491.693-.688 0-.195 0-.588-.495-.686l-2.177-.296c-1.287-.195-2.277-1.078-2.277-2.451V40.708c0-3.629 4.553-5.885 9.501-5.982 5.741 0 11.382 2.451 11.382 8.827v21.481c0 4.022-1.187 5.396-4.156 5.396h-1.783c-.196 0-.395.195-.395.686 0 .392.198.785.395.785h17.718c.197 0 .394-.394.394-.785m-68.092-21.874c-.198 7.847-3.761 11.673-10.689 11.673-6.433 0-9.898-4.807-9.898-13.732 0-9.71 3.069-13.929 10.293-13.929 6.83 0 10.294 5.101 10.294 15.009v.979zm15.44-11.575c0-2.844-1.188-4.021-3.86-4.021-3.662 0-6.928 2.845-8.61 2.845-.496 0-.791-.295-1.783-1.275-1.879-1.863-6.432-3.629-11.084-3.629-10.59 0-16.825 7.65-16.825 16.381 0 7.553 4.354 13.047 11.382 14.517 1.287.295 2.178.295 2.871.393.791.098.989 4.219.989 6.67l-1.286 6.474c-.199.786-.099 1.373-.099 1.766 0 .883.198.98.989.98h.198l6.631.197c10.295.294 9.7 5.689 9.7 7.944 0 5.101-3.663 8.534-10.788 10.399-5.345 1.373-7.523 2.941-7.523 5.393 0 2.062 1.98 3.826 4.256 3.826 7.819 0 16.43-10.103 16.43-19.618 0-17.066-12.273-15.104-13.064-15.104-2.87 0-3.366-.099-3.366-1.275l-.098-3.826c-.099-1.962-.099-2.746.494-3.728 9.896-.883 15.341-7.258 15.341-15.597 0-3.433-1.485-6.276-1.485-7.355 0-2.06 1.881-1.864 2.771-1.864 2.971 0 2.277 1.766 5.246 1.766 1.583-.003 2.573-.884 2.573-2.259m-54.039-6.571c0-.394-.099-.785-.297-.785H66.028c-.595 0-.792.196-.792.688 0 .195.197.685.494.783l2.673.49c1.583.295 2.177 1.276 2.177 3.434v29.329c0 4.022-1.287 5.396-4.256 5.396h-1.682c-.296 0-.396.195-.396.686 0 .392.1.785.297.785h16.529c.593 0 .791-.196.791-.688 0-.195.1-.686-.494-.783l-2.573-.492c-1.584-.293-2.277-1.274-2.277-3.139V37.177c0-4.022 1.286-5.396 4.256-5.396h1.682c.297.001.396-.195.396-.685m-29.889-.393c.099-.294-.396-.392-1.485-.392H36.93c-.395 0-.495.098-.495.589 0 .687.298.882 1.485.98 3.563.294 5.741.884 5.741 3.335v24.719l-.198 2.157-24.745-31.78H6.446c-.098 0-.197.392-.197.785 0 .49.099.686.395.686h1.683c3.266 0 5.246 2.256 5.246 11.28v23.346c0 3.041-.594 3.237-2.673 3.629l-3.365.491c-.297 0-.594.098-.594.196l-.198.783c-.099.296.397.394 1.485.394h14.55c.395 0 .494-.098.494-.589 0-.687-.297-.882-1.485-.98-3.563-.295-5.74-.883-5.74-3.336v-27.17l.396-2.06 28.108 35.312c.595.688 1.783 1.373 1.783-.393 0-.49-.199-1.373-.199-3.923V35.805c0-3.041.594-3.238 2.672-3.631l3.366-.491c.296 0 .593-.097.593-.194l.198-.786z"/>
  </g>
</svg>
