<svg width="48" height="41" viewBox="0 0 48 41" fill="none" xmlns="http://www.w3.org/2000/svg">
<path d="M19.4961 1C19.6907 1 19.8765 1.00678 20.043 1.02637C20.1612 1.04028 20.3339 1.06982 20.5107 1.13867C20.8059 1.24052 21.1089 1.42458 21.3896 1.62109C21.6927 1.83327 22.04 2.10889 22.4268 2.44043L22.6553 2.63672L22.7373 2.9248C23.026 3.93517 22.882 4.91715 22.3125 5.79395L22.3135 5.79492C21.9891 6.33548 21.559 7.03426 21.0244 7.88965L21.0215 7.89355C19.7519 9.90367 18.2666 12.3972 16.5645 15.376C15.0688 18.1693 14.0711 20.3063 13.5391 21.8086C15.1236 21.8821 16.6803 22.5546 18.1885 23.7207L18.5762 24.0322L18.6006 24.0518L18.624 24.0742C19.7183 25.1109 20.5014 26.2202 20.8877 27.4111C21.2767 28.6105 21.2408 29.8304 20.8037 31.0352L20.8047 31.0361C20.064 33.2582 18.1487 35.3334 15.3057 37.3018L15.2822 37.3184L15.2578 37.333C13.3365 38.5072 11.7282 39.26 10.5264 39.3936L10.4717 39.4004H10.416C9.35533 39.4004 7.8109 38.9575 5.89355 38.2119L5.78516 38.1699L5.68945 38.1045C3.90655 36.8787 2.55628 35.551 1.71191 34.1035L1.69629 34.0762L1.68164 34.0469C0.937897 32.5592 0.804847 30.9894 1.27637 29.3896C1.60562 26.9046 2.14891 24.5702 2.91211 22.3896L2.91895 22.3691L2.92773 22.3486C3.76885 20.2458 4.5037 18.1979 5.13379 16.2051C5.80626 13.6385 6.92654 11.2905 8.49121 9.16699C9.93305 7.21021 11.5204 5.25631 13.252 3.30469C13.2624 3.23583 13.2782 3.16595 13.2998 3.0957C13.3916 2.79752 13.5692 2.56345 13.7754 2.3916C14.1521 2.07767 14.6454 1.95094 15.0742 1.88965C15.7227 1.79701 16.6094 1.55679 17.7539 1.14062L17.876 1.0957L18.0059 1.08398C18.6048 1.02954 19.1056 1 19.4961 1ZM43.4961 1C43.6907 1 43.8765 1.00678 44.043 1.02637C44.1612 1.04028 44.3339 1.06982 44.5107 1.13867C44.8059 1.24052 45.1089 1.42458 45.3896 1.62109C45.6927 1.83327 46.04 2.10889 46.4268 2.44043L46.6553 2.63672L46.7373 2.9248C47.026 3.93517 46.882 4.91715 46.3125 5.79395L46.3135 5.79492C45.9891 6.33548 45.559 7.03425 45.0244 7.88965L45.0215 7.89355C43.7519 9.90367 42.2666 12.3972 40.5645 15.376C39.0688 18.1693 38.0711 20.3063 37.5391 21.8086C39.1236 21.8821 40.6803 22.5546 42.1885 23.7207L42.5762 24.0322L42.6006 24.0518L42.624 24.0742C43.7183 25.1109 44.5014 26.2202 44.8877 27.4111C45.2767 28.6105 45.2408 29.8304 44.8037 31.0352L44.8047 31.0361C44.064 33.2582 42.1487 35.3334 39.3057 37.3018L39.2822 37.3184L39.2578 37.333C37.3365 38.5072 35.7282 39.26 34.5264 39.3936L34.4717 39.4004H34.416C33.3553 39.4004 31.8109 38.9575 29.8936 38.2119L29.7852 38.1699L29.6895 38.1045C27.9065 36.8787 26.5563 35.551 25.7119 34.1035L25.6963 34.0762L25.6816 34.0469C24.9379 32.5593 24.804 30.9893 25.2754 29.3896C25.6046 26.9045 26.1489 24.5703 26.9121 22.3896L26.9189 22.3691L26.9277 22.3486C27.7689 20.2458 28.5037 18.1979 29.1338 16.2051C29.8063 13.6385 30.9265 11.2905 32.4912 9.16699C33.9331 7.21021 35.5204 5.25631 37.252 3.30469C37.2624 3.23583 37.2782 3.16595 37.2998 3.0957C37.3916 2.79751 37.5692 2.56345 37.7754 2.3916C38.1521 2.07767 38.6454 1.95094 39.0742 1.88965C39.7227 1.79701 40.6094 1.55679 41.7539 1.14062L41.876 1.0957L42.0059 1.08398C42.6048 1.02954 43.1056 1 43.4961 1Z" stroke="#FFC83D" stroke-width="2"/>
</svg>
