<svg width="203" height="203" viewBox="0 0 203 203" fill="none" xmlns="http://www.w3.org/2000/svg">
<circle cx="101.5" cy="101.5" r="101.5" fill="#CF9221" fill-opacity="0.2"/>
<circle cx="101.5" cy="101.5" r="101" stroke="#5D2400" stroke-opacity="0.3"/>
<circle cx="101.499" cy="101.5" r="51.2691" stroke="#5D2400" stroke-opacity="0.3"/>
<path d="M101.908 82.9526V95.5892M101.908 82.9526C108.886 82.9526 114.544 88.6102 114.544 95.5892M101.908 82.9526C94.9286 82.9526 89.271 88.6102 89.271 95.5892M114.544 95.5892H89.271M114.544 95.5892V108.226C114.544 115.205 108.886 120.862 101.908 120.862C94.9286 120.862 89.271 115.205 89.271 108.226V95.5892" stroke="#5D1300" stroke-width="3" stroke-linecap="round" stroke-linejoin="round"/>
<path d="M112.596 33.2376C113.259 32.5743 113.259 31.4989 112.596 30.8356L104.286 22.5346C102.96 21.2091 100.81 21.2096 99.4837 22.5356L91.1776 30.8417C90.5144 31.505 90.5144 32.5805 91.1776 33.2437C91.8409 33.907 92.9163 33.907 93.5796 33.2437L100.689 26.1346C101.352 25.4712 102.427 25.4712 103.091 26.1346L110.194 33.2376C110.857 33.9009 111.932 33.9009 112.596 33.2376Z" fill="#5D1300"/>
<path d="M169.763 112.597C170.427 113.26 171.502 113.26 172.165 112.597L180.466 104.287C181.792 102.961 181.791 100.811 180.465 99.4847L172.159 91.1786C171.496 90.5153 170.421 90.5153 169.757 91.1786C169.094 91.8419 169.094 92.9173 169.757 93.5806L176.866 100.69C177.53 101.353 177.53 102.428 176.866 103.092L169.763 110.195C169.1 110.858 169.1 111.933 169.763 112.597Z" fill="#5D1300"/>
<path d="M33.2366 112.597C32.5734 113.26 31.4979 113.26 30.8346 112.597L22.5336 104.287C21.2081 102.961 21.2086 100.811 22.5346 99.4847L30.8408 91.1786C31.504 90.5153 32.5795 90.5153 33.2428 91.1786C33.9061 91.8419 33.9061 92.9173 33.2428 93.5806L26.1336 100.69C25.4702 101.353 25.4702 102.428 26.1336 103.092L33.2366 110.195C33.8999 110.858 33.8999 111.933 33.2366 112.597Z" fill="#5D1300"/>
<path d="M91.2196 169.762C90.5563 170.426 90.5563 171.501 91.2196 172.164L99.529 180.465C100.856 181.791 103.006 181.79 104.332 180.464L112.638 172.158C113.301 171.495 113.301 170.42 112.638 169.756C111.974 169.093 110.899 169.093 110.236 169.756L103.127 176.865C102.463 177.529 101.388 177.529 100.725 176.865L93.6216 169.762C92.9583 169.099 91.883 169.099 91.2196 169.762Z" fill="#5D1300"/>
</svg>
