<svg width="82" height="82" viewBox="0 0 82 82" fill="none" xmlns="http://www.w3.org/2000/svg">
<g opacity="0.5">
<path d="M7.77734 68.61V41.9132C7.77734 39.3148 9.8832 37.209 12.4816 37.209H72.1588C74.7571 37.209 76.863 39.3148 76.863 41.9132V68.61C76.863 71.2084 74.7571 73.3142 72.1588 73.3142H12.4816C9.8832 73.2972 7.77734 71.1914 7.77734 68.61Z" fill="#5D1600"/>
<path d="M69.5254 71.898V38.6289L16.6243 38.6289L16.6243 71.898H69.5254Z" fill="white"/>
<path d="M72.2949 58.3863V52.1366C72.2949 51.9668 72.4987 51.814 72.7365 51.814C72.9742 51.814 73.178 51.9498 73.178 52.1366V58.3863C73.178 58.5561 72.9742 58.7089 72.7365 58.7089C72.4987 58.7089 72.2949 58.5561 72.2949 58.3863Z" fill="white"/>
<path d="M10.6641 55.2615C10.6641 54.1236 11.5811 53.2065 12.702 53.2065C13.8228 53.2065 14.7399 54.1236 14.7399 55.2615C14.7399 56.3993 13.8228 57.3164 12.702 57.3164C11.5811 57.3164 10.6641 56.3993 10.6641 55.2615ZM14.3833 55.2615C14.3833 54.3274 13.6191 53.5462 12.702 53.5462C11.7679 53.5462 11.0207 54.3104 11.0207 55.2615C11.0207 56.2125 11.7849 56.9767 12.702 56.9767C13.6191 56.9597 14.3833 56.1955 14.3833 55.2615Z" fill="white"/>
</g>
<path d="M39.0768 73.3483H12.38C9.78164 73.3483 7.67578 71.2425 7.67578 68.6441V8.9669C7.67578 6.36855 9.78164 4.2627 12.38 4.2627H39.0768C41.6752 4.2627 43.781 6.36855 43.781 8.9669V68.6441C43.781 71.2425 41.6752 73.3483 39.0768 73.3483Z" fill="#5D1600"/>
<path d="M42.3717 11.5991H9.10254V64.5003H42.3717V11.5991Z" fill="white"/>
<path d="M28.8536 8.83085H22.6039C22.4341 8.83085 22.2812 8.62706 22.2812 8.3893C22.2812 8.15155 22.4171 7.94775 22.6039 7.94775H28.8536C29.0234 7.94775 29.1762 8.15155 29.1762 8.3893C29.1762 8.62706 29.0234 8.83085 28.8536 8.83085Z" fill="white"/>
<path d="M25.7287 70.4611C24.5909 70.4611 23.6738 69.544 23.6738 68.4232C23.6738 67.3023 24.5909 66.3853 25.7287 66.3853C26.8666 66.3853 27.7836 67.3023 27.7836 68.4232C27.7836 69.561 26.8666 70.4611 25.7287 70.4611ZM25.7287 66.7419C24.7947 66.7419 24.0135 67.5061 24.0135 68.4232C24.0135 69.3572 24.7777 70.1045 25.7287 70.1045C26.6798 70.1045 27.444 69.3402 27.444 68.4232C27.444 67.5061 26.6798 66.7419 25.7287 66.7419Z" fill="white"/>
<path d="M65.5185 29.1595L68.6772 24.6251L65.0939 24.5742C65.1279 23.0967 65.0429 18.3415 60.8312 12.958C57.0271 8.10095 50.8114 7.30276 48.5867 7.09897C48.4848 7.08199 48.4508 7.23483 48.5527 7.2688C53.4438 8.72931 56.0761 11.3446 58.114 14.6902C60.0161 17.832 60.05 23.3514 60.0161 24.5062L56.3308 24.4553L59.3537 29.0916L62.3767 33.7279L65.5185 29.1595Z" fill="#5D1600"/>
</svg>
