<svg width="100" height="60" viewBox="0 0 100 60" fill="none" xmlns="http://www.w3.org/2000/svg">
<g clip-path="url(#clip0_715_7387)">
<path d="M6.40527 14.2919V47.4371C6.40527 50.6651 8.98915 53.2812 12.1773 53.2812H85.4009C88.5891 53.2812 91.1729 50.6651 91.1729 47.4371V14.2708C91.1729 11.0428 88.5891 8.42659 85.4009 8.42659H12.1773C8.98915 8.44769 6.40527 11.0639 6.40527 14.2919Z" fill="#5D1600"/>
<path d="M82.165 10.1922L82.165 51.5234L17.2557 51.5234L17.2557 10.1922L82.165 10.1922Z" fill="white"/>
<path d="M85.5674 26.9913V34.7554C85.5674 34.9664 85.8174 35.1562 86.1092 35.1562C86.4009 35.1562 86.6509 34.9875 86.6509 34.7554V26.9913C86.6509 26.7803 86.4009 26.5904 86.1092 26.5904C85.8174 26.5904 85.5674 26.7592 85.5674 26.9913Z" fill="white"/>
<path d="M9.94727 30.8553C9.94727 32.2689 11.0725 33.4082 12.4478 33.4082C13.8231 33.4082 14.9483 32.2689 14.9483 30.8553C14.9483 29.4418 13.8231 28.3025 12.4478 28.3025C11.0725 28.3025 9.94727 29.4628 9.94727 30.8553ZM14.5107 30.8553C14.5107 32.0157 13.573 32.9862 12.4478 32.9862C11.3017 32.9862 10.3849 32.0368 10.3849 30.8553C10.3849 29.6738 11.3226 28.7244 12.4478 28.7244C13.573 28.7455 14.5107 29.6949 14.5107 30.8553Z" fill="white"/>
<g clip-path="url(#clip1_715_7387)">
<path d="M43.1879 59.4282C43.8258 57.4273 43.7671 56.529 42.759 52.8864C41.8268 49.5191 41.8205 49.432 42.1568 44.6355C42.5364 39.2236 42.5048 37.1416 42.0015 34.4267C41.8127 33.408 41.6703 32.2649 41.6851 31.8864C41.7737 29.6098 44.9775 29.8753 46.5232 32.2877C47.3534 33.5839 47.8386 35.7068 47.8991 38.3083C47.955 40.7117 48.1811 41.3485 48.9676 41.3175C49.4362 41.2976 49.7768 40.8256 51.8312 37.3479C53.7037 34.1784 54.1768 33.2167 54.2362 32.4803C54.2761 31.9747 54.0852 29.9635 53.8125 28.0102C53.391 24.9941 53.3888 24.3319 53.7971 23.6159C54.5866 22.2314 56.4505 21.9282 57.7627 22.9705C58.1825 23.3035 58.9485 26.6633 59.875 32.2304C60.0489 33.2765 60.1048 33.3473 60.6384 33.2025C61.9329 32.8514 63.1458 33.6718 63.7254 35.2906C64.0408 36.1724 64.0028 36.4064 63.3574 37.5529C62.7672 38.6059 62.7219 38.797 63.1121 38.6333C64.3037 38.1339 65.4991 38.5703 66.3472 39.8141C66.9385 40.6814 66.9346 41.6652 66.3354 42.7161L65.9319 43.4236L66.6665 43.1958C67.5974 42.9074 68.6707 43.5121 69.3013 44.6792C69.5608 45.1609 69.7283 45.8361 69.6735 46.1794C69.6184 46.5235 67.9063 49.8125 65.8688 53.4893L62.1637 60.1744L59.3482 62.1323C57.2227 63.6101 56.2268 64.4811 55.2836 65.6865L54.0339 67.2834L48.4073 63.9943L42.7807 60.7052L43.1879 59.4282ZM25.3546 39.3344C25.5791 39.0944 26.6029 37.8346 27.6302 36.5355C28.6569 35.2366 29.5551 34.1497 29.6258 34.1199C29.6972 34.0895 29.9281 34.4719 30.1413 34.9672C30.3541 35.4627 30.6502 35.893 30.7989 35.9238C30.948 35.9543 32.362 35.3977 33.942 34.6862C35.5221 33.9747 36.9315 33.4177 37.0744 33.4481C37.2167 33.4797 37.4763 33.8892 37.6497 34.3617L37.9653 35.22L34.8132 36.6054C33.0796 37.3673 31.6342 38.0379 31.6014 38.0955C31.5683 38.1535 31.7581 38.6511 32.0212 39.2039L32.5005 40.2078L31.5208 40.2114C29.9615 40.2175 25.273 39.9625 25.102 39.8625C25.0164 39.8125 25.1319 39.5759 25.3546 39.3344ZM40.0618 35.4207C39.2637 34.2913 39.0093 32.695 39.3976 31.2529C40.184 28.332 43.6134 26.9608 46.2618 28.5089C47.8294 29.4253 48.7194 31.11 48.6396 33.0104C48.5981 34.0011 48.5638 33.9641 47.5245 31.7997C46.8576 30.4114 46.5432 30.0286 45.6597 29.5297C44.4175 28.8551 43.3371 28.8225 42.1311 29.4887C40.5878 30.3419 39.8647 32.5945 40.6487 34.1065C41.2257 35.2186 41.3925 36.7863 40.9012 36.4795C40.8114 36.4228 40.4326 35.9478 40.0618 35.4207ZM51.7697 26.8516C51.2265 25.501 51.159 24.7337 51.4729 23.48C52.4209 19.6927 57.4062 18.7144 59.7691 21.8525C60.1114 22.3052 60.4844 22.964 60.5994 23.3137C60.8584 24.1028 60.6951 26.0554 60.3126 26.7416C60.0806 27.157 59.956 26.8579 59.65 25.1532C59.2191 22.7522 58.5589 21.7771 57.041 21.2985C55.5351 20.8255 54.1362 21.3382 53.1988 22.7094C52.4656 23.7819 52.4295 23.9783 52.5815 25.9725C52.7502 28.1707 52.4368 28.5102 51.7697 26.8516ZM61.9368 22.9578L61.6688 22.2207L63.008 21.5674C63.7447 21.2078 65.1994 20.5467 66.2409 20.0978L68.1345 19.2814L67.6477 18.2618C67.379 17.7026 67.2934 17.2082 67.4552 17.1667C67.7753 17.0858 74.3994 17.331 74.5714 17.4316C74.6295 17.4655 74.1371 18.1576 73.4762 18.9683C72.816 19.7798 71.7382 21.1071 71.0815 21.9181L69.8875 23.3924L69.4681 22.3756C69.2367 21.8176 68.9198 21.3627 68.7622 21.3675C68.6042 21.3731 67.1785 21.9686 65.5927 22.6933C64.0069 23.4179 62.5959 23.9395 62.457 23.8527C62.3177 23.7666 62.0848 23.3619 61.9368 22.9578Z" fill="#5D1600"/>
</g>
</g>
<defs>
<clipPath id="clip0_715_7387">
<rect width="100" height="60" fill="white" transform="matrix(1 0 0 -1 0 60)"/>
</clipPath>
<clipPath id="clip1_715_7387">
<rect width="61.9222" height="62.308" fill="white" transform="matrix(0.863315 0.504666 -0.495349 0.868694 40.7412 -7.5)"/>
</clipPath>
</defs>
</svg>
